Input #0, lavfi, from 'rgbtestsrc=duration=60:size=1920x1080:rate=30':
  Duration: N/A, start: 0.000000, bitrate: N/A
  Stream #0:0: Video: rawvideo (RGBA / 0x41424752), rgba, 1920x1080 [SAR 1:1 DAR 16:9], 30 tbr, 30 tbn, 30 tbc
Stream mapping:
  Stream #0:0 -> #0:0 (rawvideo (native) -> h264 (h264_nvenc))
Press [q] to stop, [?] for help
Output #0, mp4, to './test_results/temp_tests_gpu/test_test_50_32/output.mp4':
  Metadata:
    encoder         : Lavf58.76.100
  Stream #0:0: Video: h264 (Main) (avc1 / 0x31637661), rgb0(pc, gbr/unknown/unknown, progressive), 1280x720 [SAR 1:1 DAR 16:9], q=2-31, 30 fps, 15360 tbn
    Metadata:
      encoder         : Lavc58.134.100 h264_nvenc
    Side data:
      cpb: bitrate max/min/avg: 3000000/0/0 buffer size: 4000000 vbv_delay: N/A
frame=    1 fps=0.0 q=0.0 size=       0kB time=00:00:00.00 bitrate=N/A speed=   0x    frame=    2 fps=0.7 q=0.0 size=       0kB time=00:00:00.00 bitrate=N/A speed=   0x    frame=   14 fps=4.4 q=23.0 size=       0kB time=00:00:00.36 bitrate=   1.0kbits/s speed=0.116x    frame=   27 fps=7.3 q=23.0 size=       0kB time=00:00:00.80 bitrate=   0.5kbits/s speed=0.218x    frame=   40 fps=9.6 q=23.0 size=       0kB time=00:00:01.23 bitrate=   0.3kbits/s speed=0.295x    frame=   53 fps= 11 q=23.0 size=       0kB time=00:00:01.66 bitrate=   0.2kbits/s speed=0.355x    frame=   68 fps= 13 q=23.0 size=       0kB time=00:00:02.16 bitrate=   0.2kbits/s speed=0.417x    frame=   84 fps= 15 q=23.0 size=       0kB time=00:00:02.70 bitrate=   0.1kbits/s speed=0.472x    frame=  100 fps= 16 q=23.0 size=       0kB time=00:00:03.23 bitrate=   0.1kbits/s speed=0.519x    frame=  117 fps= 17 q=23.0 size=       0kB time=00:00:03.80 bitrate=   0.1kbits/s speed=0.562x    frame=  135 fps= 19 q=23.0 size=       0kB time=00:00:04.40 bitrate=   0.1kbits/s speed=0.604x    frame=  152 fps= 19 q=23.0 size=       0kB time=00:00:04.96 bitrate=   0.1kbits/s speed=0.637x    frame=  169 fps= 20 q=23.0 size=       0kB time=00:00:05.53 bitrate=   0.1kbits/s speed=0.665x    frame=  186 fps= 21 q=23.0 size=       0kB time=00:00:06.10 bitrate=   0.1kbits/s speed=0.691x    frame=  203 fps= 22 q=23.0 size=       0kB time=00:00:06.66 bitrate=   0.1kbits/s speed=0.712x    frame=  219 fps= 22 q=23.0 size=       0kB time=00:00:07.20 bitrate=   0.1kbits/s speed=0.728x    frame=  236 fps= 23 q=23.0 size=       0kB time=00:00:07.76 bitrate=   0.0kbits/s speed=0.747x    frame=  252 fps= 23 q=23.0 size=       0kB time=00:00:08.30 bitrate=   0.0kbits/s speed=0.76x    frame=  267 fps= 23 q=23.0 size=       0kB time=00:00:08.80 bitrate=   0.0kbits/s speed=0.768x    frame=  280 fps= 23 q=23.0 size=       0kB time=00:00:09.23 bitrate=   0.0kbits/s speed=0.772x    frame=  292 fps= 23 q=23.0 size=       0kB time=00:00:09.63 bitrate=   0.0kbits/s speed=0.771x    frame=  305 fps= 23 q=23.0 size=       0kB time=00:00:10.06 bitrate=   0.0kbits/s speed=0.775x    frame=  319 fps= 24 q=23.0 size=       0kB time=00:00:10.53 bitrate=   0.0kbits/s speed=0.78x    frame=  333 fps= 24 q=23.0 size=       0kB time=00:00:11.00 bitrate=   0.0kbits/s speed=0.784x    frame=  348 fps= 24 q=23.0 size=       0kB time=00:00:11.50 bitrate=   0.0kbits/s speed=0.789x    frame=  363 fps= 24 q=19.0 size=       0kB time=00:00:12.00 bitrate=   0.0kbits/s speed=0.796x    frame=  378 fps= 24 q=23.0 size=       0kB time=00:00:12.50 bitrate=   0.0kbits/s speed=0.802x    frame=  393 fps= 24 q=23.0 size=       0kB time=00:00:13.00 bitrate=   0.0kbits/s speed=0.808x    frame=  408 fps= 25 q=23.0 size=       0kB time=00:00:13.50 bitrate=   0.0kbits/s speed=0.814x    frame=  425 fps= 25 q=23.0 size=       0kB time=00:00:14.06 bitrate=   0.0kbits/s speed=0.823x    frame=  443 fps= 25 q=23.0 size=       0kB time=00:00:14.66 bitrate=   0.0kbits/s speed=0.833x    frame=  462 fps= 26 q=23.0 size=       0kB time=00:00:15.30 bitrate=   0.0kbits/s speed=0.845x    frame=  482 fps= 26 q=23.0 size=       0kB time=00:00:15.96 bitrate=   0.0kbits/s speed=0.857x    frame=  502 fps= 26 q=23.0 size=       0kB time=00:00:16.63 bitrate=   0.0kbits/s speed=0.868x    frame=  522 fps= 27 q=23.0 size=       0kB time=00:00:17.30 bitrate=   0.0kbits/s speed=0.879x    frame=  542 fps= 27 q=23.0 size=       0kB time=00:00:17.96 bitrate=   0.0kbits/s speed=0.889x    frame=  562 fps= 27 q=23.0 size=       0kB time=00:00:18.63 bitrate=   0.0kbits/s speed=0.899x    frame=  582 fps= 27 q=23.0 size=       0kB time=00:00:19.30 bitrate=   0.0kbits/s speed=0.908x    frame=  602 fps= 28 q=23.0 size=       0kB time=00:00:19.96 bitrate=   0.0kbits/s speed=0.917x    frame=  621 fps= 28 q=23.0 size=       0kB time=00:00:20.60 bitrate=   0.0kbits/s speed=0.925x    frame=  640 fps= 28 q=23.0 size=       0kB time=00:00:21.23 bitrate=   0.0kbits/s speed=0.931x    frame=  659 fps= 28 q=23.0 size=       0kB time=00:00:21.86 bitrate=   0.0kbits/s speed=0.938x    frame=  679 fps= 28 q=23.0 size=       0kB time=00:00:22.53 bitrate=   0.0kbits/s speed=0.945x    frame=  697 fps= 29 q=23.0 size=       0kB time=00:00:23.13 bitrate=   0.0kbits/s speed=0.95x    frame=  717 fps= 29 q=23.0 size=       0kB time=00:00:23.80 bitrate=   0.0kbits/s speed=0.957x    frame=  737 fps= 29 q=23.0 size=       0kB time=00:00:24.46 bitrate=   0.0kbits/s speed=0.963x    frame=  757 fps= 29 q=23.0 size=       0kB time=00:00:25.13 bitrate=   0.0kbits/s speed=0.97x    frame=  776 fps= 29 q=23.0 size=       0kB time=00:00:25.76 bitrate=   0.0kbits/s speed=0.975x    frame=  795 fps= 30 q=23.0 size=       0kB time=00:00:26.40 bitrate=   0.0kbits/s speed=0.98x    frame=  814 fps= 30 q=23.0 size=       0kB time=00:00:27.03 bitrate=   0.0kbits/s speed=0.984x    frame=  832 fps= 30 q=23.0 size=       0kB time=00:00:27.63 bitrate=   0.0kbits/s speed=0.988x    frame=  851 fps= 30 q=23.0 size=       0kB time=00:00:28.26 bitrate=   0.0kbits/s speed=0.993x    frame=  870 fps= 30 q=23.0 size=       0kB time=00:00:28.90 bitrate=   0.0kbits/s speed=0.997x    frame=  889 fps= 30 q=23.0 size=       0kB time=00:00:29.53 bitrate=   0.0kbits/s speed=   1x    frame=  909 fps= 30 q=23.0 size=       0kB time=00:00:30.20 bitrate=   0.0kbits/s speed=1.01x    frame=  929 fps= 30 q=23.0 size=       0kB time=00:00:30.86 bitrate=   0.0kbits/s speed=1.01x    frame=  949 fps= 31 q=23.0 size=       0kB time=00:00:31.53 bitrate=   0.0kbits/s speed=1.02x    frame=  969 fps= 31 q=23.0 size=       0kB time=00:00:32.20 bitrate=   0.0kbits/s speed=1.02x    frame=  989 fps= 31 q=23.0 size=       0kB time=00:00:32.86 bitrate=   0.0kbits/s speed=1.02x    frame= 1009 fps= 31 q=23.0 size=       0kB time=00:00:33.53 bitrate=   0.0kbits/s speed=1.03x    frame= 1029 fps= 31 q=23.0 size=       0kB time=00:00:34.20 bitrate=   0.0kbits/s speed=1.03x    frame= 1049 fps= 31 q=23.0 size=       0kB time=00:00:34.86 bitrate=   0.0kbits/s speed=1.04x    frame= 1069 fps= 31 q=23.0 size=       0kB time=00:00:35.53 bitrate=   0.0kbits/s speed=1.04x    frame= 1089 fps= 31 q=23.0 size=       0kB time=00:00:36.20 bitrate=   0.0kbits/s speed=1.04x    frame= 1109 fps= 32 q=23.0 size=       0kB time=00:00:36.86 bitrate=   0.0kbits/s speed=1.05x    frame= 1129 fps= 32 q=23.0 size=       0kB time=00:00:37.53 bitrate=   0.0kbits/s speed=1.05x    frame= 1149 fps= 32 q=23.0 size=       0kB time=00:00:38.20 bitrate=   0.0kbits/s speed=1.05x    frame= 1169 fps= 32 q=23.0 size=       0kB time=00:00:38.86 bitrate=   0.0kbits/s speed=1.06x    frame= 1188 fps= 32 q=23.0 size=       0kB time=00:00:39.50 bitrate=   0.0kbits/s speed=1.06x    frame= 1207 fps= 32 q=23.0 size=       0kB time=00:00:40.13 bitrate=   0.0kbits/s speed=1.06x    frame= 1225 fps= 32 q=23.0 size=       0kB time=00:00:40.73 bitrate=   0.0kbits/s speed=1.06x    frame= 1243 fps= 32 q=23.0 size=       0kB time=00:00:41.33 bitrate=   0.0kbits/s speed=1.07x    frame= 1261 fps= 32 q=23.0 size=       0kB time=00:00:41.93 bitrate=   0.0kbits/s speed=1.07x    frame= 1280 fps= 32 q=23.0 size=       0kB time=00:00:42.56 bitrate=   0.0kbits/s speed=1.07x    frame= 1299 fps= 32 q=23.0 size=       0kB time=00:00:43.20 bitrate=   0.0kbits/s speed=1.07x    frame= 1318 fps= 32 q=23.0 size=       0kB time=00:00:43.83 bitrate=   0.0kbits/s speed=1.07x    frame= 1337 fps= 32 q=23.0 size=       0kB time=00:00:44.46 bitrate=   0.0kbits/s speed=1.08x    frame= 1356 fps= 32 q=23.0 size=       0kB time=00:00:45.10 bitrate=   0.0kbits/s speed=1.08x    frame= 1375 fps= 32 q=23.0 size=       0kB time=00:00:45.73 bitrate=   0.0kbits/s speed=1.08x    frame= 1394 fps= 33 q=23.0 size=       0kB time=00:00:46.36 bitrate=   0.0kbits/s speed=1.08x    frame= 1413 fps= 33 q=23.0 size=       0kB time=00:00:47.00 bitrate=   0.0kbits/s speed=1.08x    frame= 1432 fps= 33 q=23.0 size=       0kB time=00:00:47.63 bitrate=   0.0kbits/s speed=1.09x    frame= 1451 fps= 33 q=23.0 size=       0kB time=00:00:48.26 bitrate=   0.0kbits/s speed=1.09x    frame= 1470 fps= 33 q=23.0 size=       0kB time=00:00:48.90 bitrate=   0.0kbits/s speed=1.09x    frame= 1489 fps= 33 q=23.0 size=       0kB time=00:00:49.53 bitrate=   0.0kbits/s speed=1.09x    frame= 1508 fps= 33 q=23.0 size=       0kB time=00:00:50.16 bitrate=   0.0kbits/s speed=1.09x    frame= 1527 fps= 33 q=23.0 size=       0kB time=00:00:50.80 bitrate=   0.0kbits/s speed=1.09x    frame= 1546 fps= 33 q=23.0 size=       0kB time=00:00:51.43 bitrate=   0.0kbits/s speed= 1.1x    frame= 1565 fps= 33 q=23.0 size=       0kB time=00:00:52.06 bitrate=   0.0kbits/s speed= 1.1x    frame= 1584 fps= 33 q=23.0 size=       0kB time=00:00:52.70 bitrate=   0.0kbits/s speed= 1.1x    frame= 1604 fps= 33 q=23.0 size=       0kB time=00:00:53.36 bitrate=   0.0kbits/s speed= 1.1x    frame= 1623 fps= 33 q=19.0 size=       0kB time=00:00:54.00 bitrate=   0.0kbits/s speed= 1.1x    frame= 1642 fps= 33 q=23.0 size=       0kB time=00:00:54.63 bitrate=   0.0kbits/s speed= 1.1x    frame= 1661 fps= 33 q=23.0 size=       0kB time=00:00:55.26 bitrate=   0.0kbits/s speed= 1.1x    frame= 1680 fps= 33 q=23.0 size=       0kB time=00:00:55.90 bitrate=   0.0kbits/s speed=1.11x    frame= 1699 fps= 33 q=23.0 size=       0kB time=00:00:56.53 bitrate=   0.0kbits/s speed=1.11x    frame= 1718 fps= 33 q=23.0 size=       0kB time=00:00:57.16 bitrate=   0.0kbits/s speed=1.11x    frame= 1737 fps= 33 q=23.0 size=       0kB time=00:00:57.80 bitrate=   0.0kbits/s speed=1.11x    frame= 1756 fps= 33 q=23.0 size=       0kB time=00:00:58.43 bitrate=   0.0kbits/s speed=1.11x    frame= 1775 fps= 33 q=23.0 size=       0kB time=00:00:59.06 bitrate=   0.0kbits/s speed=1.11x    frame= 1794 fps= 33 q=23.0 size=       0kB time=00:00:59.70 bitrate=   0.0kbits/s speed=1.11x    [mp4 @ 0x56ccf1da8200] Starting second pass: moving the moov atom to the beginning of the file
frame= 1800 fps= 33 q=23.0 Lsize=     159kB time=00:00:59.96 bitrate=  21.7kbits/s speed=1.11x    
video:151kB audio:0kB subtitle:0kB other streams:0kB global headers:0kB muxing overhead: 5.300566%
